<svg version="1.1" id="Calque_1" xmlns="http://www.w3.org/2000/svg" xmlns:xlink="http://www.w3.org/1999/xlink" x="0px" y="0px"
	 width="26.733px" height="34.746px" viewBox="0 0 26.733 34.746" enable-background="new 0 0 26.733 34.746" xml:space="preserve">
<path fill="#8ac4d7" d="M13.365,0C5.984,0,0,5.984,0,13.367c0,5.851,6.914,11.065,6.914,11.065c1.144,0.861,2.605,2.617,3.247,3.898
	l0.98,1.966l2.226,4.45l2.14-4.282l1.067-2.136c0.64-1.282,2.1-3.035,3.243-3.898c0,0,6.916-5.212,6.916-11.063
	C26.733,5.984,20.749,0,13.365,0 M13.365,19.255c-3.511,0-6.355-2.846-6.355-6.357c0-3.511,2.844-6.357,6.355-6.357
	c3.513,0,6.357,2.846,6.357,6.357C19.722,16.409,16.877,19.255,13.365,19.255"/>
</svg>
