<svg version="1.1" id="Calque_1" xmlns="http://www.w3.org/2000/svg" xmlns:xlink="http://www.w3.org/1999/xlink" x="0px" y="0px"
	 width="7px" height="11px" viewBox="0 0 7 11" enable-background="new 0 0 7 11" xml:space="preserve">
<path fill-rule="evenodd" clip-rule="evenodd" fill="#d2d2d2" d="M5.833,11c-0.304,0-0.578-0.121-0.786-0.313L5.045,10.69
	L0.378,6.369C0.138,6.146,0,5.831,0,5.5c0-0.331,0.138-0.645,0.378-0.869L5.045,0.31l0.002,0.003C5.255,0.12,5.529,0,5.833,0
	C6.478,0,7,0.528,7,1.179c0,0.343-0.148,0.65-0.38,0.865l0.002,0.003L2.893,5.5l3.729,3.453L6.62,8.956C6.852,9.171,7,9.478,7,9.821
	C7,10.472,6.478,11,5.833,11z"/>
</svg>
