<svg version="1.1" id="Calque_1" xmlns="http://www.w3.org/2000/svg" xmlns:xlink="http://www.w3.org/1999/xlink" x="0px" y="0px"
	 width="7px" height="11px" viewBox="0 0 7 11" enable-background="new 0 0 7 11" xml:space="preserve">
<path fill-rule="evenodd" clip-rule="evenodd" fill="#d2d2d2" d="M1.167,0c0.304,0,0.578,0.121,0.786,0.313L1.955,0.31l4.667,4.321
	C6.862,4.854,7,5.169,7,5.5c0,0.331-0.138,0.645-0.378,0.869L1.955,10.69l-0.002-0.003C1.745,10.88,1.471,11,1.167,11
	C0.522,11,0,10.472,0,9.821c0-0.343,0.148-0.65,0.38-0.865L0.378,8.953L4.107,5.5L0.378,2.047L0.38,2.044
	C0.148,1.829,0,1.522,0,1.179C0,0.528,0.522,0,1.167,0z"/>
</svg>
