<?xml version="1.0" encoding="utf-8"?>
<!-- Generator: Adobe Illustrator 15.1.0, SVG Export Plug-In . SVG Version: 6.00 Build 0)  -->
<!DOCTYPE svg PUBLIC "-//W3C//DTD SVG 1.1//EN" "http://www.w3.org/Graphics/SVG/1.1/DTD/svg11.dtd">
<svg version="1.1" id="Layer_1" xmlns="http://www.w3.org/2000/svg" xmlns:xlink="http://www.w3.org/1999/xlink" x="0px" y="0px"
	 width="660.477px" height="419.53px" viewBox="-437.277 -267.958 660.477 419.53"
	 enable-background="new -437.277 -267.958 660.477 419.53" xml:space="preserve">
<path d="M-227.491-88.201c-0.091,23.83,0,47.672,0.104,71.502c39.963,1.312,80.018,0.702,119.98,1.312
	c-17.626,88.648-138.203,117.384-202.009,59.51c-65.611-50.775-62.509-162.15,5.71-209.317
	c47.672-38.068,115.477-28.645,163.137,4.297c18.729-17.328,36.265-35.849,53.176-55.098
	c-39.652-31.644-88.336-54.188-140.111-51.787c-108.053-3.595-207.409,91.049-209.214,199.089
	c-6.917,88.324,51.191,174.973,133.194,206.213c81.73,31.45,186.486,10.021,238.677-63.403
	C-30.388,27.755-22.99-31.936-26.988-88.033C-93.883-88.514-160.701-88.422-227.491-88.201z"/>
<path d="M163.288-88.514c-0.195-19.935-0.285-39.975-0.39-59.898c-19.936,0-39.755,0-59.574,0
	c-0.208,19.936-0.402,39.859-0.507,59.898c-20.027,0.092-39.949,0.195-59.886,0.39c0,19.937,0,39.756,0,59.588
	c19.937,0.208,39.963,0.39,59.886,0.61c0.221,19.936,0.221,39.846,0.402,59.77c19.924,0,39.755,0,59.679,0
	c0.104-19.924,0.221-39.834,0.39-59.887c20.04-0.221,39.976-0.285,59.912-0.493c0-19.832,0-39.755,0-59.588
	C203.264-88.319,183.211-88.319,163.288-88.514z"/>
</svg>
