<svg version="1.1"
	 xmlns="http://www.w3.org/2000/svg" xmlns:xlink="http://www.w3.org/1999/xlink" xmlns:a="http://ns.adobe.com/AdobeSVGViewerExtensions/3.0/"
	 x="0px" y="0px" width="20px" height="13px" viewBox="0 0 20 13" overflow="visible" enable-background="new 0 0 20 13"
	 xml:space="preserve">
<defs>
</defs>
<path d="M0.75,12.735c-0.413,0-0.748-0.333-0.75-0.746c-0.002-0.414,0.332-0.752,0.746-0.754l18.788-0.102
	c0.001,0,0.003,0,0.004,0c0.412,0,0.748,0.333,0.75,0.746c0.002,0.414-0.332,0.752-0.746,0.754L0.754,12.735
	C0.753,12.735,0.751,12.735,0.75,12.735z"/>
<path d="M11.426,2.917c0,0.708-0.574,1.282-1.282,1.282c-0.708,0-1.282-0.574-1.282-1.282s0.574-1.282,1.282-1.282
	C10.852,1.634,11.426,2.208,11.426,2.917"/>
<path d="M17.346,0c-0.067,3.917-3.27,7.083-7.203,7.083C6.211,7.083,3.009,3.917,2.942,0h-1.5
	c0.067,4.744,3.942,8.583,8.701,8.583c4.761,0,8.636-3.839,8.703-8.583H17.346z"/>
</svg>
