<?xml version="1.0" encoding="utf-8"?>
<!-- Generator: Adobe Illustrator 15.1.0, SVG Export Plug-In . SVG Version: 6.00 Build 0)  -->
<!DOCTYPE svg PUBLIC "-//W3C//DTD SVG 1.1//EN" "http://www.w3.org/Graphics/SVG/1.1/DTD/svg11.dtd">
<svg version="1.1" id="Calque_1" xmlns="http://www.w3.org/2000/svg" xmlns:xlink="http://www.w3.org/1999/xlink" x="0px" y="0px"
	 width="20.288px" height="17.785px" viewBox="0 0 20.288 17.785" enable-background="new 0 0 20.288 17.785" xml:space="preserve">
<path d="M0.75,17.785c-0.413,0-0.748-0.333-0.75-0.746c-0.002-0.414,0.332-0.752,0.746-0.754l18.788-0.102c0.001,0,0.003,0,0.004,0
	c0.412,0,0.748,0.332,0.75,0.746c0.002,0.413-0.332,0.752-0.746,0.754L0.754,17.785C0.753,17.785,0.751,17.785,0.75,17.785z"/>
<path d="M11.426,6.939c0,0.708-0.574,1.282-1.282,1.282c-0.708,0-1.282-0.574-1.282-1.282s0.574-1.282,1.282-1.282
	C10.852,5.657,11.426,6.231,11.426,6.939"/>
<path d="M7.082,0C5.008,0.154,3.359,1.802,3.207,3.877h1.5C4.85,2.629,5.836,1.643,7.082,1.499V0z"/>
<path d="M13.206,0v1.499c1.246,0.144,2.231,1.13,2.375,2.378h1.5C16.93,1.802,15.279,0.154,13.206,0"/>
<path d="M7.082,12.379c-1.246-0.145-2.232-1.129-2.375-2.378h-1.5c0.153,2.075,1.802,3.724,3.875,3.877V12.379z"/>
<path d="M15.582,10.002c-0.145,1.248-1.129,2.232-2.375,2.378v1.499c2.07-0.154,3.721-1.803,3.875-3.877H15.582z"/>
</svg>
