<svg version="1.1" id="Calque_1" xmlns="http://www.w3.org/2000/svg" xmlns:xlink="http://www.w3.org/1999/xlink" x="0px" y="0px"
	 width="20.433px" height="13.885px" viewBox="0 0 20.433 13.885" enable-background="new 0 0 20.433 13.885" xml:space="preserve">
<path d="M0.75,13.886c-0.413,0-0.748-0.333-0.75-0.745c-0.002-0.414,0.332-0.752,0.746-0.755l18.788-0.102c0.001,0,0.003,0,0.004,0
	c0.412,0,0.748,0.333,0.75,0.746s-0.332,0.752-0.746,0.754L0.754,13.886C0.753,13.886,0.751,13.886,0.75,13.886z"/>
<path d="M0.961,10.136c-0.383,0-0.71-0.292-0.746-0.682C0.177,9.042,0.48,8.677,0.893,8.639l7.36-0.678l2.935-6.788
	c0.107-0.252,0.347-0.424,0.619-0.449l7.807-0.721c0.404-0.033,0.777,0.265,0.816,0.678c0.037,0.413-0.267,0.778-0.679,0.815
	l-7.364,0.68L9.454,8.965c-0.109,0.252-0.347,0.424-0.62,0.449l-7.803,0.719C1.007,10.135,0.984,10.136,0.961,10.136z"/>
<path d="M7.051,4.54c0,0.708-0.574,1.282-1.282,1.282S4.487,5.248,4.487,4.54s0.574-1.282,1.282-1.282S7.051,3.832,7.051,4.54"/>
</svg>
