<svg version="1.1"
	 xmlns="http://www.w3.org/2000/svg" xmlns:xlink="http://www.w3.org/1999/xlink" xmlns:a="http://ns.adobe.com/AdobeSVGViewerExtensions/3.0/"
	 x="0px" y="0px" width="20px" height="15px" viewBox="0 0 20 15" overflow="visible" enable-background="new 0 0 20 15"
	 xml:space="preserve">
<defs>
</defs>
<path 
	d="M19.538,13.551c-0.001,0-0.003,0-0.004,0l-8.243,0.045L18.13,1.11c0.127-0.232,0.122-0.515-0.013-0.743C17.981,0.14,17.736,0,17.472,0H2.816c-0.265,0-0.51,0.14-0.645,0.368c-0.135,0.228-0.14,0.51-0.013,0.743l6.845,12.498l-8.257,0.045C0.332,13.655-0.002,13.993,0,14.407c0.002,0.413,0.337,0.746,0.75,0.746c0.001,0,0.003,0,0.004,0l18.788-0.102c0.414-0.002,0.748-0.34,0.746-0.754C20.286,13.884,19.95,13.551,19.538,13.551z M16.206,1.5l-6.062,11.068L4.082,1.5H16.206z"/>
<path d="M11.426,5.667c0,0.708-0.574,1.282-1.282,1.282c-0.708,0-1.282-0.574-1.282-1.282s0.574-1.282,1.282-1.282C10.852,4.385,11.426,4.959,11.426,5.667"/>
</svg>
