<?xml version="1.0" encoding="utf-8"?>
<!-- Generator: Adobe Illustrator 15.1.0, SVG Export Plug-In . SVG Version: 6.00 Build 0)  -->
<!DOCTYPE svg PUBLIC "-//W3C//DTD SVG 1.1//EN" "http://www.w3.org/Graphics/SVG/1.1/DTD/svg11.dtd">
<svg version="1.1" id="Calque_1" xmlns="http://www.w3.org/2000/svg" xmlns:xlink="http://www.w3.org/1999/xlink" x="0px" y="0px"
	 width="20.288px" height="17.146px" viewBox="0 0 20.288 17.146" enable-background="new 0 0 20.288 17.146" xml:space="preserve">
<path d="M19.538,15.545c-0.001,0-0.003,0-0.004,0l-7.185,0.039c0.275-0.171,0.539-0.364,0.774-0.6l3.894-3.896
	c0.797-0.796,1.234-1.854,1.234-2.98c0-1.126-0.438-2.185-1.234-2.981l-3.894-3.894C12.329,0.438,11.27,0,10.144,0
	c-1.126,0-2.185,0.438-2.98,1.234L3.269,5.128C2.473,5.924,2.034,6.983,2.034,8.109c0,1.125,0.439,2.185,1.235,2.98l3.894,3.896
	c0.248,0.246,0.527,0.447,0.819,0.623l-7.236,0.039C0.332,15.648-0.002,15.986,0,16.4c0.002,0.412,0.337,0.746,0.75,0.746
	c0.001,0,0.003,0,0.004,0l18.788-0.103c0.414-0.002,0.748-0.34,0.746-0.754C20.286,15.878,19.95,15.545,19.538,15.545z M4.33,10.029
	c-0.513-0.514-0.796-1.195-0.796-1.92c0-0.726,0.283-1.407,0.796-1.92l3.894-3.894C8.736,1.782,9.418,1.5,10.144,1.5
	s1.409,0.282,1.92,0.795l3.895,3.894c0.514,0.513,0.795,1.195,0.795,1.92s-0.281,1.407-0.795,1.92l-3.895,3.895
	c-1.023,1.025-2.813,1.026-3.84,0L4.33,10.029z"/>
<path d="M11.426,8.109c0,0.708-0.574,1.282-1.282,1.282c-0.708,0-1.282-0.574-1.282-1.282s0.574-1.282,1.282-1.282
	C10.852,6.827,11.426,7.401,11.426,8.109"/>
</svg>
