<svg version="1.1" id="Calque_1" xmlns="http://www.w3.org/2000/svg" xmlns:xlink="http://www.w3.org/1999/xlink" x="0px" y="0px"
	 width="195.817px" height="419.53px" viewBox="210.761 50 195.817 419.53" enable-background="new 210.761 50 195.817 419.53"
	 xml:space="preserve">
<path d="M275.289,71.615c16.359-15.578,39.63-20.839,61.58-21.495c23.216-0.209,46.423-0.083,69.639-0.073
	c0.093,24.491,0.102,48.99-0.01,73.48c-15.001-0.027-30.017,0.037-45.02-0.027c-9.514-0.592-19.283,6.619-21.013,16.05
	c-0.228,16.387-0.082,32.783-0.073,49.171c22.005,0.091,44.012-0.027,66.014,0.055c-1.61,23.705-4.552,47.305-7.999,70.812
	c-19.439,0.182-38.886-0.02-58.321,0.1c-0.173,69.92,0.091,139.84-0.136,209.76c-28.87,0.119-57.759-0.055-86.628,0.082
	c-0.546-69.93,0.045-139.895-0.3-209.831c-14.085-0.147-28.178,0.101-42.261-0.119c0.053-23.506,0.02-47.012,0.025-70.511
	c14.073-0.172,28.158,0.037,42.235-0.1c0.428-22.852-0.429-45.731,0.446-68.563C254.877,102.323,261.769,84.105,275.289,71.615z"/>
</svg>
